Coordinates
version=1
nRows=26
nColumns=24
inDegrees=yes

Units are S.I. units (second, meters, Newtons, ...)
Angles are in degrees.

endheader
time	pelvis_tilt	pelvis_list	pelvis_rotation	pelvis_tx	pelvis_ty	pelvis_tz	hip_flexion_r	hip_adduction_r	hip_rotation_r	knee_angle_r	ankle_angle_r	subtalar_angle_r	mtp_angle_r	hip_flexion_l	hip_adduction_l	hip_rotation_l	knee_angle_l	ankle_angle_l	subtalar_angle_l	mtp_angle_l	lumbar_extension	lumbar_bending	lumbar_rotation
      3.81500000	     -6.05066760	      0.02126038	    360.61977816	      0.26858793	      1.39128756	     -1.04714072	     13.87713439	      2.53554377	      1.86562739	     -9.93159068	     -4.12218168	    -11.56623793	      7.39222242	     17.88994465	      3.79770185	      5.31633973	    -53.24460252	     -3.13768503	     10.97586038	     38.87483233	     -6.69249646	      5.15163723	     10.12389675
      3.82000000	     -6.13746617	      0.12146175	    360.58795981	      0.27299575	      1.39161711	     -1.04677493	     13.64417523	      2.47978909	      2.02465742	     -9.83298960	     -4.01718410	    -11.75617988	      7.26364190	     18.60098957	      3.85009857	      5.17698525	    -53.22743661	     -2.60125976	     10.96322715	     38.26894613	     -6.65555962	      4.98173319	     10.14917133
      3.82500000	     -6.22113283	      0.21896213	    360.56680712	      0.27737629	      1.39193437	     -1.04644773	     13.40991642	      2.42147342	      2.18008414	     -9.73630203	     -3.91016970	    -11.93672326	      7.13657080	     19.29519328	      3.90300216	      5.05296216	    -53.14658863	     -2.08606983	     10.93520244	     37.69709025	     -6.62824512	      4.81716045	     10.18296704
      3.83000000	     -6.31184189	      0.31647891	    360.54704998	      0.28176200	      1.39222045	     -1.04612718	     13.18652493	      2.36209057	      2.33090211	     -9.64763312	     -3.79499835	    -12.12201824	      7.00988244	     19.97979583	      3.95055596	      4.92229136	    -53.00217785	     -1.59690485	     10.88236797	     37.15685459	     -6.58864017	      4.65184097	     10.21928865
      3.83500000	     -6.36855983	      0.42906113	    360.52787304	      0.28614090	      1.39253796	     -1.04581891	     12.92460248	      2.28472984	      2.49178258	     -9.55652529	     -3.67584025	    -12.29248527	      6.88535316	     20.59929961	      4.01202321	      4.79194078	    -52.77201940	     -1.14478006	     10.79889647	     36.66048239	     -6.58855059	      4.46858786	     10.26325656
      3.84000000	     -6.45984353	      0.54154424	    360.51754726	      0.29051382	      1.39280161	     -1.04553030	     12.70788928	      2.20368206	      2.64475180	     -9.48124248	     -3.54900244	    -12.45856202	      6.75343984	     21.24175900	      4.07457929	      4.66977209	    -52.48340627	     -0.71553293	     10.71321602	     36.19209337	     -6.55094948	      4.28389781	     10.29394141
      3.84500000	     -6.54304986	      0.65851163	    360.51512132	      0.29488316	      1.39305733	     -1.04528875	     12.48268229	      2.11133654	      2.80649022	     -9.40785392	     -3.40993076	    -12.59740865	      6.63636700	     21.85248139	      4.14879868	      4.56655588	    -52.12300273	     -0.33165970	     10.59662752	     35.79592248	     -6.52128228	      4.10626331	     10.32133317
      3.85000000	     -6.60415899	      0.78636486	    360.51699805	      0.29925390	      1.39332892	     -1.04503969	     12.23556991	      2.00683445	      2.94716223	     -9.34048793	     -3.26242100	    -12.74205637	      6.50727965	     22.41084449	      4.23006421	      4.45936995	    -51.68580837	      0.03174631	     10.48017824	     35.39282870	     -6.51405376	      3.90376237	     10.35605534
      3.85500000	     -6.66843914	      0.93272517	    360.53446888	      0.30361877	      1.39357380	     -1.04481066	     12.00220628	      1.87677919	      3.04323965	     -9.29480405	     -3.08988069	    -12.86897554	      6.44290950	     22.94970873	      4.33571667	      4.36554952	    -51.17122263	      0.32525284	     10.35370642	     35.17172738	     -6.51223270	      3.68399113	     10.33570512
      3.86000000	     -6.74759036	      1.05667611	    360.55237078	      0.30798743	      1.39378264	     -1.04464982	     11.77917924	      1.76586248	      3.18806544	     -9.23830438	     -2.93178985	    -12.99197149	      6.30042045	     23.48837573	      4.43077975	      4.30017203	    -50.61772277	      0.63097983	     10.19692651	     34.77756379	     -6.48351279	      3.49723820	     10.37878448
      3.86500000	     -6.79979713	      1.18262028	    360.60154373	      0.31232635	      1.39399476	     -1.04454508	     11.54249209	      1.64230967	      3.22857413	     -9.21299564	     -2.77487563	    -13.09771558	      6.24703339	     23.97400996	      4.54193440	      4.27711488	    -49.98748277	      0.92925898	     10.09769721	     34.62379550	     -6.49777653	      3.31870195	     10.36887063
      3.87000000	     -6.88034407	      1.29251652	    360.62040707	      0.31669692	      1.39414922	     -1.04440875	     11.33223118	      1.54509287	      3.36671705	     -9.18265891	     -2.58107280	    -13.19476820	      6.01816619	     24.47343558	      4.62369658	      4.22128032	    -49.32973045	      1.20360941	      9.92472947	     34.07662028	     -6.46176853	      3.13825565	     10.43021473
      3.87500000	     -6.95064725	      1.42665087	    360.67822767	      0.32105055	      1.39428736	     -1.04430508	     11.11707960	      1.41148838	      3.39221384	     -9.16284934	     -2.38489663	    -13.29588812	      5.95224837	     24.94142955	      4.74316591	      4.19972263	    -48.59517507	      1.40956262	      9.84338582	     33.90345965	     -6.45481370	      2.94030403	     10.39101800
      3.88000000	     -7.01664762	      1.54394263	    360.72917285	      0.32541016	      1.39440870	     -1.04423122	     10.90103544	      1.29569183	      3.45720816	     -9.15344982	     -2.18733425	    -13.37924525	      5.83379004	     25.38147047	      4.85333614	      4.19974854	    -47.80978783	      1.59653523	      9.66717655	     33.62353802	     -6.44635079	      2.76108017	     10.38964276
      3.88500000	     -7.07644931	      1.65566061	    360.78724160	      0.32975696	      1.39450211	     -1.04419716	     10.68338598	      1.18233419	      3.50507540	     -9.15356747	     -1.97829343	    -13.44700266	      5.68152361	     25.79562299	      4.96564161	      4.21900927	    -46.97661572	      1.77623984	      9.50974380	     33.31429387	     -6.44830900	      2.59084463	     10.39050042
      3.89000000	     -7.13449995	      1.76069916	    360.84957068	      0.33409772	      1.39456648	     -1.04420337	     10.46646894	      1.07245232	      3.54055380	     -9.15885580	     -1.75768195	    -13.48772341	      5.50186606	     26.18784499	      5.07950480	      4.26219345	    -46.09510597	      1.95634985	      9.34615953	     33.00426668	     -6.45998543	      2.44141346	     10.38760080
      3.89500000	     -7.21037230	      1.85909801	    360.93030019	      0.33843270	      1.39457541	     -1.04420929	     10.27693339	      0.96824999	      3.52702057	     -9.17695736	     -1.57137597	    -13.58909998	      5.44858199	     26.58387816	      5.18717975	      4.32124721	    -45.16144547	      2.08546308	      9.26093941	     32.87921579	     -6.45286296	      2.28744536	     10.36254674
      3.90000000	     -7.25481797	      1.95412121	    360.99340340	      0.34279569	      1.39460057	     -1.04423534	     10.04768436	      0.86907357	      3.55349621	     -9.18989602	     -1.33055245	    -13.61920419	      5.26248505	     26.91209697	      5.29423359	      4.38210087	    -44.16755221	      2.17584687	      9.00576125	     32.56461897	     -6.47212943	      2.14077600	     10.35614963
      3.90500000	     -7.34008964	      2.04481010	    361.07422882	      0.34714917	      1.39454466	     -1.04425005	      9.87311609	      0.77407015	      3.53599535	     -9.21884131	     -1.13892709	    -13.71864073	      5.20860621	     27.27216696	      5.39403427	      4.46039710	    -43.12973152	      2.24626802	      8.92132552	     32.43799373	     -6.45311411	      1.99646191	     10.32984334
      3.91000000	     -7.37681975	      2.11828114	    361.15553753	      0.35152690	      1.39451424	     -1.04432024	      9.63456174	      0.69380047	      3.51266658	     -9.23646295	     -0.84769286	    -13.68930830	      4.91536816	     27.54831760	      5.48736013	      4.56248269	    -42.04011952	      2.28815406	      8.69508459	     32.10138707	     -6.48163083	      1.86771054	     10.32654553
      3.91500000	     -7.44908567	      2.19970212	    361.21278294	      0.35588691	      1.39442016	     -1.04434587	      9.45094477	      0.61221139	      3.53632688	     -9.27239933	     -0.64304931	    -13.76804346	      4.84083240	     27.83813692	      5.56976451	      4.64105503	    -40.88562475	      2.29683886	      8.48676721	     31.93903602	     -6.48333248	      1.74504300	     10.29779690
      3.92000000	     -7.52776218	      2.27035749	    361.28299017	      0.36028100	      1.39429407	     -1.04438584	      9.26858221	      0.54029943	      3.52749686	     -9.30225718	     -0.42988063	    -13.85008193	      4.76714784	     28.11105998	      5.64318825	      4.73554593	    -39.68182181	      2.25912877	      8.29548884	     31.77365161	     -6.46640784	      1.62195197	     10.28183896
      3.92500000	     -7.56502806	      2.34173726	    361.34820367	      0.36464886	      1.39417266	     -1.04447198	      9.04433704	      0.46434503	      3.51547157	     -9.33686830	     -0.19778341	    -13.87210339	      4.63713436	     28.30730723	      5.72361177	      4.85903360	    -38.41545497	      2.23171870	      8.02509737	     31.58995853	     -6.50857167	      1.50774407	     10.28632691
      3.93000000	     -7.61850495	      2.40520680	    361.41251018	      0.36905061	      1.39401538	     -1.04454258	      8.83661467	      0.39925040	      3.49320052	     -9.37340868	      0.04591492	    -13.90104640	      4.49579913	     28.49406930	      5.78507399	      4.97356391	    -37.09342754	      2.16346954	      7.78381121	     31.43391858	     -6.52523054	      1.39351065	     10.28909437
      3.93500000	     -7.69246303	      2.47489586	    361.45848519	      0.37345148	      1.39381155	     -1.04457843	      8.65857506	      0.33230225	      3.50765581	     -9.42000718	      0.28392919	    -13.95571465	      4.41132801	     28.67547239	      5.83562512	      5.06656259	    -35.71358887	      2.03516951	      7.54475924	     31.28199353	     -6.52264048	      1.27809288	     10.28607604
      3.94000000	     -7.73128229	      2.53878746	    361.51228387	      0.37786371	      1.39361722	     -1.04467027	      8.43893872	      0.26599397	      3.48105518	     -9.46498170	      0.53592942	    -13.95095886	      4.25677781	     28.78282302	      5.88895847	      5.19831119	    -34.26699876	      1.92298771	      7.21996227	     31.16611831	     -6.55917839	      1.16317880	     10.32056102
